<svg id="Capa_1" enable-background="new 0 0 512 512" height="512" viewBox="0 0 512 512" width="512" xmlns="http://www.w3.org/2000/svg"><g><path d="m376.155 512c24.526 0 41.891-23.73 34.749-47.193-20.198-66.355-81.881-114.636-154.84-114.636-73.242 0-135.119 48.656-155.073 115.408-6.927 23.177 10.783 46.421 34.974 46.421z" fill="#fbf1cf"/><path d="m295.227 354.946c-1.797 3.153-3.585 6.648-5.393 10.567-5.341 11.574-10.748 26.532-15.635 43.259-10.706 36.643-17.099 75.234-17.099 103.228h73.28c6.174-15.441 24.434-52.904 65.119-82.185-21.753-36.826-57.679-64.283-100.272-74.869z" fill="#f5e2a2"/><path d="m222.166 365.513c-1.803-3.906-3.586-7.393-5.377-10.538-42.569 10.613-78.467 38.08-100.197 74.906 40.054 28.888 58.601 66.525 64.955 82.12h73.352c0-27.995-6.392-66.585-17.099-103.228-4.887-16.728-10.293-31.687-15.634-43.26z" fill="#f5e2a2"/><path d="m330.533 341.89h-149.066l41.445 170.11h66.176z" fill="#cde9fa"/><path d="m256 391.103-44.03 74.594-39.345-108.641z" fill="#a2ddfd"/><path d="m256 391.103 44.03 74.594 39.345-108.641z" fill="#a2ddfd"/><path d="m185.447 357.056c15.424 7.069 43.698 98.451 43.698 154.944h-20.206s-17.739-61.511-80.007-104.942c-5.484-3.825-5.998-11.752-.95-16.136 10.878-9.446 30.621-24.104 57.465-33.866z" fill="#7ca1dc"/><path d="m326.553 357.056c-15.424 7.069-43.698 98.451-43.698 154.944h20.206s17.739-61.511 80.007-104.942c5.484-3.825 5.998-11.752.95-16.136-10.878-9.446-30.621-24.104-57.465-33.866z" fill="#7ca1dc"/><path d="m369.629 486.08h-11.875c-4.143 0-7.5-3.357-7.5-7.5s3.357-7.5 7.5-7.5h11.875c4.143 0 7.5 3.357 7.5 7.5s-3.357 7.5-7.5 7.5z" fill="#8de1e0"/><ellipse cx="51.052" cy="227.7" fill="#ffd3bd" rx="51.052" ry="47.041"/><ellipse cx="460.948" cy="227.7" fill="#ffbe9d" rx="51.052" ry="47.041"/><path d="m453.956 97.676c-4.025-1.967-6.367-6.211-5.926-10.668 3.501-35.394-24.387-66.819-60.679-66.819-8.351 0-16.305 1.688-23.55 4.731-4.108 1.726-8.91.613-11.864-2.724-12.049-13.611-29.644-22.196-49.252-22.196-15.193 0-29.18 5.154-40.315 13.805-3.729 2.897-9.011 2.897-12.74 0-11.135-8.651-25.122-13.805-40.315-13.805-19.608 0-37.203 8.585-49.252 22.196-2.954 3.336-7.756 4.45-11.864 2.724-7.245-3.044-15.199-4.731-23.55-4.731-36.359 0-64.165 31.492-60.678 66.819.44 4.458-1.901 8.702-5.926 10.669-21.029 10.277-35.394 32.078-34.838 57.187.748 33.808 28.99 61.057 62.804 60.663 39.813-.464 69.198-37.998 59.486-77.083 10.369-3.774 19.423-10.281 26.292-18.652 26.046 18.13 61.577 15.125 84.212-7.681 22.621 22.793 58.153 25.82 84.211 7.681 6.87 8.37 15.924 14.878 26.293 18.652-9.708 39.066 19.652 76.605 59.464 77.083 33.818.406 62.072-26.839 62.826-60.651.559-25.115-13.807-46.922-34.839-57.2z" fill="#4e5660"/><path d="m145.496 138.443c1.171-.426 2.323-.892 3.46-1.387-17.949-34.578-21.834-81.673-14.172-116.009-3.298-.554-6.68-.859-10.136-.859-36.359 0-64.165 31.492-60.678 66.819.44 4.458-1.901 8.702-5.926 10.669-21.029 10.277-35.394 32.078-34.838 57.187.748 33.808 28.99 61.057 62.804 60.663 39.813-.465 69.197-37.998 59.486-77.083z" fill="#383c43"/><path d="m453.229 225.861c0-98.561-88.302-178.461-197.229-178.461s-197.229 79.9-197.229 178.461 88.302 165.242 197.229 165.242 197.229-66.68 197.229-165.242z" fill="#ffd3bd"/><path d="m163.76 68.093c-62.445 29.954-104.989 89.361-104.989 157.768 0 98.562 88.302 165.242 197.229 165.242 18.848 0 37.077-1.999 54.339-5.812-210.94-17.854-202.539-228.474-146.579-317.198z" fill="#ffbe9d"/><g><g><g><g><ellipse cx="137.788" cy="252.33" fill="#eda1ab" rx="43.618" ry="34.735"/></g><g><ellipse cx="374.212" cy="252.33" fill="#eda1ab" rx="43.618" ry="34.735"/></g></g></g><g fill="#4e5660"><path d="m163.209 226.393c-4.143 0-7.5-3.357-7.5-7.5v-17.83c0-4.143 3.357-7.5 7.5-7.5s7.5 3.357 7.5 7.5v17.83c0 4.142-3.357 7.5-7.5 7.5z"/><path d="m348.791 226.393c-4.143 0-7.5-3.357-7.5-7.5v-17.83c0-4.143 3.357-7.5 7.5-7.5s7.5 3.357 7.5 7.5v17.83c0 4.142-3.357 7.5-7.5 7.5z"/></g></g><path d="m256 263.741c19.509 14.018 41.822 11.226 59.926 4.721 9.287-3.337 12.633-14.666 6.763-22.598-3.378-4.566-6.227-10.199-7.993-16.357-11.116-38.762-47.079-31.26-58.697-21.255-11.618-10.005-47.58-17.507-58.697 21.255-1.766 6.158-4.615 11.791-7.993 16.357-5.869 7.933-2.523 19.262 6.763 22.598 18.106 6.505 40.419 9.297 59.928-4.721z" fill="#4e5660"/></g></svg>