<svg id="Capa_1" enable-background="new 0 0 512 512" height="512" viewBox="0 0 512 512" width="512" xmlns="http://www.w3.org/2000/svg"><g><path d="m376.155 512c24.526 0 41.891-23.73 34.749-47.193-20.198-66.355-81.881-114.636-154.84-114.636-73.242 0-135.119 48.656-155.073 115.408-6.927 23.177 10.783 46.421 34.974 46.421z" fill="#fbf1cf"/><path d="m295.227 354.946c-1.797 3.153-3.585 6.648-5.393 10.567-5.341 11.574-10.748 26.532-15.635 43.259-10.706 36.643-17.099 75.234-17.099 103.228h73.28c6.174-15.441 24.434-52.904 65.119-82.185-21.753-36.826-57.679-64.283-100.272-74.869z" fill="#f5e2a2"/><path d="m222.166 365.513c-1.803-3.906-3.586-7.393-5.377-10.538-42.569 10.613-78.467 38.08-100.197 74.906 40.055 28.888 58.602 66.525 64.955 82.12h73.352c0-27.995-6.392-66.585-17.099-103.228-4.887-16.728-10.293-31.687-15.634-43.26z" fill="#f5e2a2"/><ellipse cx="256" cy="391.103" fill="#cb9d82" rx="74.594" ry="74.594" transform="matrix(.707 -.707 .707 .707 -201.571 295.571)"/><path d="m292.36 512 29.113-124.902c-26.791 34.064-48.12 50.969-65.473 50.969-17.352 0-38.682-16.905-65.473-50.969l29.113 124.902z" fill="#cde9fa"/><path d="m185.447 357.056c15.424 7.069 43.698 98.451 43.698 154.944h-20.206s-17.739-61.511-80.007-104.942c-5.484-3.825-5.998-11.752-.95-16.136 10.878-9.446 30.621-24.104 57.465-33.866z" fill="#7ca1dc"/><path d="m326.553 357.056c-15.424 7.069-43.698 98.451-43.698 154.944h20.206s17.739-61.511 80.007-104.942c5.484-3.825 5.998-11.752.95-16.136-10.878-9.446-30.621-24.104-57.465-33.866z" fill="#7ca1dc"/><path d="m369.629 486.08h-11.875c-4.143 0-7.5-3.358-7.5-7.5s3.357-7.5 7.5-7.5h11.875c4.143 0 7.5 3.358 7.5 7.5s-3.357 7.5-7.5 7.5z" fill="#8de1e0"/><ellipse cx="51.052" cy="222.459" fill="#cb9d82" rx="51.052" ry="47.041"/><path d="m31.136 308.235-15.114-27.147c-7.002-12.576 2.091-28.046 16.485-28.046h32.577c14.394 0 23.487 15.47 16.485 28.046l-15.114 27.147c-7.706 13.84-27.613 13.84-35.319 0z" fill="#8de1e0"/><ellipse cx="460.948" cy="222.459" fill="#b7856b" rx="51.052" ry="47.041"/><path d="m480.864 308.235 15.114-27.147c7.002-12.576-2.091-28.046-16.485-28.046h-32.577c-14.394 0-23.487 15.47-16.485 28.046l15.114 27.147c7.705 13.84 27.613 13.84 35.319 0z" fill="#8de1e0"/><path d="m457.29 222.459c0-100.591-90.121-182.137-201.29-182.137s-201.291 81.545-201.291 182.137 90.121 168.644 201.291 168.644 201.29-68.053 201.29-168.644z" fill="#cb9d82"/><path d="m161.861 61.442c-63.732 30.571-107.152 91.201-107.152 161.016 0 100.591 90.121 168.645 201.291 168.645 19.236 0 37.84-2.041 55.458-5.932-215.284-18.222-206.71-233.178-149.597-323.729z" fill="#b7856b"/><ellipse cx="123.296" cy="65.695" fill="#4e5660" rx="68.586" ry="65.695"/><path d="m256 40.322c-111.17 0-201.291 81.545-201.291 182.137 10.069-18.105 44.974-73.211 98.631-67.687 62.026 6.385 84.27-28.743 102.66-46.976 18.39 18.233 40.634 53.361 102.66 46.976 53.657-5.524 88.562 49.582 98.631 67.687 0-100.592-90.121-182.137-201.291-182.137z" fill="#4e5660"/><path d="m54.709 222.458c8.496-15.277 34.675-56.897 74.881-66.209 4.845-36.488 16.768-70.229 32.27-94.808-63.731 30.572-107.151 91.202-107.151 161.017z" fill="#383c43"/><g><g fill="#fff"><ellipse cx="137.788" cy="263.33" rx="43.618" ry="34.735"/><ellipse cx="374.212" cy="263.33" rx="43.618" ry="34.735"/></g><g fill="#4e5660"><path d="m163.208 237.393c-4.142 0-7.5-3.358-7.5-7.5v-17.831c0-4.142 3.358-7.5 7.5-7.5s7.5 3.358 7.5 7.5v17.831c0 4.142-3.357 7.5-7.5 7.5z"/><path d="m348.791 237.393c-4.143 0-7.5-3.358-7.5-7.5v-17.831c0-4.142 3.357-7.5 7.5-7.5s7.5 3.358 7.5 7.5v17.831c0 4.142-3.357 7.5-7.5 7.5z"/><path d="m256 248.007c-11.544 0-22.521-5-30.118-13.718-2.721-3.123-2.396-7.86.727-10.582 3.122-2.721 7.86-2.396 10.581.727 4.748 5.448 11.604 8.572 18.81 8.572s14.062-3.125 18.81-8.572c2.723-3.123 7.458-3.448 10.582-.727 3.122 2.721 3.448 7.459.727 10.582-7.598 8.718-18.576 13.718-30.119 13.718z"/></g></g></g></svg>